<svg width="30" height="32" viewBox="0 0 30 32" fill="none" xmlns="http://www.w3.org/2000/svg"><path d="M6.66602 21C3.90459 21 1.66602 23.2386 1.66602 26C1.66602 28.7614 3.90459 31 6.66602 31C9.42744 31 11.666 28.7614 11.666 26C11.666 23.2386 9.42744 21 6.66602 21ZM6.66602 21V19.3333C6.66602 17.4924 8.1584 16 9.99935 16H19.9993C21.8403 16 23.3327 17.4924 23.3327 19.3333V21M14.9993 11C17.7608 11 19.9993 8.76142 19.9993 6C19.9993 3.23858 17.7608 1 14.9993 1C12.2379 1 9.99935 3.23858 9.99935 6C9.99935 8.76142 12.2379 11 14.9993 11ZM14.9993 11V16M23.3327 21C20.5713 21 18.3327 23.2386 18.3327 26C18.3327 28.7614 20.5713 31 23.3327 31C26.0941 31 28.3327 28.7614 28.3327 26C28.3327 23.2386 26.0941 21 23.3327 21Z" stroke="black" stroke-width="1.5" stroke-linecap="round"></path></svg>