<svg width="30" height="36" viewBox="0 0 30 36" fill="none" xmlns="http://www.w3.org/2000/svg"><path d="M28.3327 6.33331C28.3327 9.09474 22.3631 11.3333 14.9993 11.3333C7.63555 11.3333 1.66602 9.09474 1.66602 6.33331M28.3327 6.33331C28.3327 3.57189 22.3631 1.33331 14.9993 1.33331C7.63555 1.33331 1.66602 3.57189 1.66602 6.33331M28.3327 6.33331V29.6666C28.3327 32.4281 22.3631 34.6666 14.9993 34.6666C7.63555 34.6666 1.66602 32.4281 1.66602 29.6666V6.33331M28.3327 18C28.3327 20.7614 22.3631 23 14.9993 23C7.63555 23 1.66602 20.7614 1.66602 18" stroke="black" stroke-width="1.5"></path></svg>